HIERARCHY
ROOT hip
{
  OFFSET 0 0 0
  CHANNELS 6 Xposition Yposition Zposition Zrotation Yrotation Xrotation
  JOINT abdomen
  {
    OFFSET 0 20.6881 -0.73152
    CHANNELS 3 Zrotation Xrotation Yrotation
    JOINT chest
    {
      OFFSET 0 11.7043 -0.48768
      CHANNELS 3 Zrotation Xrotation Yrotation
      JOINT neck
      {
        OFFSET 0 22.1894 -2.19456
        CHANNELS 3 Zrotation Xrotation Yrotation
        JOINT head
        {
          OFFSET -0.24384 7.07133 1.2192
          CHANNELS 3 Zrotation Xrotation Yrotation
          JOINT leftEye
          {
            OFFSET 4.14528 8.04674 8.04672
            CHANNELS 3 Zrotation Xrotation Yrotation
            End Site
            {
              OFFSET 1 0 0
            }
          }
          JOINT rightEye
          {
            OFFSET -3.6576 8.04674 8.04672
            CHANNELS 3 Zrotation Xrotation Yrotation
            End Site
            {
              OFFSET 1 0 0
            }
          }
        }
      }
      JOINT rCollar
      {
        OFFSET -2.68224 19.2634 -4.8768
        CHANNELS 3 Zrotation Xrotation Yrotation
        JOINT rShldr
        {
          OFFSET -8.77824 -1.95073 1.46304
          CHANNELS 3 Zrotation Xrotation Yrotation
          JOINT rForeArm
          {
            OFFSET -28.1742 -1.7115 0.48768
            CHANNELS 3 Zrotation Xrotation Yrotation
            JOINT rHand
            {
              OFFSET -22.5879 0.773209 7.07136
              CHANNELS 3 Zrotation Xrotation Yrotation
              JOINT rThumb1
              {
                OFFSET -1.2192 -0.487915 3.41376
                CHANNELS 3 Zrotation Xrotation Yrotation
                JOINT rThumb2
                {
                  OFFSET -3.37035 -0.52449 3.41376
                  CHANNELS 3 Zrotation Xrotation Yrotation
                  End Site
                  {
                    OFFSET -1.78271 -1.18214 1.43049
                  }
                }
              }
              JOINT rIndex1
              {
                OFFSET -7.75947 0.938293 5.60832
                CHANNELS 3 Zrotation Xrotation Yrotation
                JOINT rIndex2
                {
                  OFFSET -2.54057 -0.884171 1.56538
                  CHANNELS 3 Zrotation Xrotation Yrotation
                  End Site
                  {
                    OFFSET -1.62519 -0.234802 1.16502
                  }
                }
              }
              JOINT rMid1
              {
                OFFSET -8.24714 1.18213 3.41376
                CHANNELS 3 Zrotation Xrotation Yrotation
                JOINT rMid2
                {
                  OFFSET -3.10165 -0.590103 1.0647
                  CHANNELS 3 Zrotation Xrotation Yrotation
                  End Site
                  {
                    OFFSET -2.48547 -0.328903 0.83742
                  }
                }
              }
              JOINT rRing1
              {
                OFFSET -8.82822 0.546677 1.51678
                CHANNELS 3 Zrotation Xrotation Yrotation
                JOINT rRing2
                {
                  OFFSET -2.60934 -0.819778 -0.0198488
                  CHANNELS 3 Zrotation Xrotation Yrotation
                  End Site
                  {
                    OFFSET -2.33842 -0.294052 0.168128
                  }
                }
              }
              JOINT rPinky1
              {
                OFFSET -8.27202 -0.0477905 -0.4584
                CHANNELS 3 Zrotation Xrotation Yrotation
                JOINT rPinky2
                {
                  OFFSET -1.82734 -0.647385 -0.700984
                  CHANNELS 3 Zrotation Xrotation Yrotation
                  End Site
                  {
                    OFFSET -1.69225 -0.51767 -0.607171
                  }
                }
              }
            }
          }
        }
      }
      JOINT lCollar
      {
        OFFSET 2.68224 19.2634 -4.8768
        CHANNELS 3 Zrotation Xrotation Yrotation
        JOINT lShldr
        {
          OFFSET 8.77824 -1.95073 1.46304
          CHANNELS 3 Zrotation Xrotation Yrotation
          JOINT lForeArm
          {
            OFFSET 28.1742 -1.7115 0.48768
            CHANNELS 3 Zrotation Xrotation Yrotation
            JOINT lHand
            {
              OFFSET 22.5879 0.773209 7.07136
              CHANNELS 3 Zrotation Xrotation Yrotation
              JOINT lThumb1
              {
                OFFSET 1.2192 -0.487915 3.41376
                CHANNELS 3 Zrotation Xrotation Yrotation
                JOINT lThumb2
                {
                  OFFSET 3.37035 -0.52449 3.41376
                  CHANNELS 3 Zrotation Xrotation Yrotation
                  End Site
                  {
                    OFFSET 1.78271 -1.18214 1.43049
                  }
                }
              }
              JOINT lIndex1
              {
                OFFSET 7.75947 0.938293 5.60832
                CHANNELS 3 Zrotation Xrotation Yrotation
                JOINT lIndex2
                {
                  OFFSET 2.54057 -0.884171 1.56538
                  CHANNELS 3 Zrotation Xrotation Yrotation
                  End Site
                  {
                    OFFSET 1.62519 -0.234802 1.16502
                  }
                }
              }
              JOINT lMid1
              {
                OFFSET 8.24714 1.18213 3.41376
                CHANNELS 3 Zrotation Xrotation Yrotation
                JOINT lMid2
                {
                  OFFSET 3.10165 -0.590103 1.0647
                  CHANNELS 3 Zrotation Xrotation Yrotation
                  End Site
                  {
                    OFFSET 2.48547 -0.328903 0.83742
                  }
                }
              }
              JOINT lRing1
              {
                OFFSET 8.82822 0.546677 1.51678
                CHANNELS 3 Zrotation Xrotation Yrotation
                JOINT lRing2
                {
                  OFFSET 2.60934 -0.819778 -0.0198488
                  CHANNELS 3 Zrotation Xrotation Yrotation
                  End Site
                  {
                    OFFSET 2.33842 -0.294052 0.168128
                  }
                }
              }
              JOINT lPinky1
              {
                OFFSET 8.27202 -0.0477905 -0.4584
                CHANNELS 3 Zrotation Xrotation Yrotation
                JOINT lPinky2
                {
                  OFFSET 1.82734 -0.647385 -0.700984
                  CHANNELS 3 Zrotation Xrotation Yrotation
                  End Site
                  {
                    OFFSET 1.69225 -0.51767 -0.607171
                  }
                }
              }
            }
          }
        }
      }
    }
  }
  JOINT rButtock
  {
    OFFSET -8.77824 4.35084 1.2192
    CHANNELS 3 Zrotation Xrotation Yrotation
    JOINT rThigh
    {
      OFFSET 0 -1.70687 -2.19456
      CHANNELS 3 Zrotation Xrotation Yrotation
      JOINT rShin
      {
        OFFSET 0 -36.8199 0.73152
        CHANNELS 3 Zrotation Xrotation Yrotation
        JOINT rFoot
        {
          OFFSET 0.73152 -45.1104 -5.12064
          CHANNELS 3 Zrotation Xrotation Yrotation
          End Site
          {
            OFFSET -1.1221 -3.69964 12.103
          }
        }
      }
    }
  }
  JOINT lButtock
  {
    OFFSET 8.77824 4.35084 1.2192
    CHANNELS 3 Zrotation Xrotation Yrotation
    JOINT lThigh
    {
      OFFSET 0 -1.70687 -2.19456
      CHANNELS 3 Zrotation Xrotation Yrotation
      JOINT lShin
      {
        OFFSET 0 -36.8199 0.73152
        CHANNELS 3 Zrotation Xrotation Yrotation
        JOINT lFoot
        {
          OFFSET -0.73152 -45.1104 -5.12064
          CHANNELS 3 Zrotation Xrotation Yrotation
          End Site
          {
            OFFSET 1.1221 -3.69964 12.103
          }
        }
      }
    }
  }
}
MOTION
Frames:	8
Frame Time:	0.00833333
0.784327 82.7026 -0.826525 2.3275 -0.0217 2.1532 -1.32384 6.21363 5.25571 -0.25946 -2.09781 1.45924 -4.56286 14.7149 -5.12075 3.77528 -24.9438 -9.1587 -0.0 0.0 0.0 -0.0 0.0 0.0 1.05069e-13 -2.79188e-14 2.21179e-14 80.4436 56.4235 -8.97901 -28.1848 -31.8597 70.2277 -1.61864 -33.5995 -5.3577 3.55416e-10 -2.35944e-09 7.05197e-10 5.94282e-10 -4.05393e-09 1.22612e-09 3.55418e-10 -2.35944e-09 7.05198e-10 7.73091 5.47488 0.417314 3.55413e-10 -2.35944e-09 7.052e-10 2.90554 0.965183 0.102902 3.55424e-10 -2.35944e-09 7.05202e-10 10.2786 0.731801 0.0259123 3.55414e-10 -2.35944e-09 7.0521e-10 2.22167 -0.733487 -0.20892 1.04866e-13 -2.79161e-14 2.1878e-14 -76.8214 66.9717 5.50289 27.8897 -29.9909 -67.2344 0.0940862 -8.71567 1.23454 -1.21658e-10 -3.08264e-09 -5.91843e-10 -2.0338e-10 -5.33806e-09 -1.02809e-09 -1.2166e-10 -3.08265e-09 -5.91843e-10 -7.73091 5.47488 -0.417314 -1.21656e-10 -3.08264e-09 -5.91839e-10 -2.90554 0.965183 -0.102902 -1.2166e-10 -3.08264e-09 -5.91841e-10 -10.2786 0.731801 -0.0259123 -1.2165e-10 -3.08264e-09 -5.91843e-10 -2.22167 -0.733487 0.20892 -2.03217e-16 0.0 -3.88251e-19 -3.72879 -14.7312 3.66462 -0.141084 27.8596 0.523769 -4.74969 -13.2916 -14.2323 2.03217e-16 0.0 3.88251e-19 -2.0413 -13.103 -4.32202 0.104588 25.2985 -0.454951 3.75556 -14.0917 10.8593
0.795433 82.6988 -0.824584 2.3868 0.0032 2.103 -1.26911 6.24237 5.21857 -0.243571 -2.09918 1.4495 -4.62033 14.6824 -5.1267 3.81019 -24.858 -9.16059 -0.0 0.0 0.0 -0.0 0.0 0.0 1.3806e-13 -6.04329e-14 1.99779e-14 80.0172 56.2956 -8.61147 -28.1823 -31.8406 70.197 -1.62003 -33.6119 -5.36023 2.72796e-10 -2.16065e-09 6.74313e-10 4.5345e-10 -3.70786e-09 1.16999e-09 2.72797e-10 -2.16065e-09 6.74313e-10 7.73091 5.47488 0.417314 2.72793e-10 -2.16065e-09 6.74316e-10 2.90554 0.965183 0.102902 2.72802e-10 -2.16065e-09 6.74319e-10 10.2786 0.731801 0.0259123 2.72793e-10 -2.16065e-09 6.74328e-10 2.22167 -0.733487 -0.20892 1.37862e-13 -6.04294e-14 1.97791e-14 -76.7377 67.0187 5.3992 27.8804 -29.9411 -67.1547 0.093679 -8.69716 1.23188 -2.47803e-10 -2.25943e-09 -2.6182e-10 -4.23478e-10 -3.9223e-09 -4.59041e-10 -2.47805e-10 -2.25943e-09 -2.6182e-10 -7.73091 5.47488 -0.417314 -2.47802e-10 -2.25943e-09 -2.61817e-10 -2.90554 0.965183 -0.102902 -2.47805e-10 -2.25943e-09 -2.61818e-10 -10.2786 0.731801 -0.0259123 -2.47794e-10 -2.25943e-09 -2.61817e-10 -2.22167 -0.733487 0.20892 -2.03217e-16 0.0 -3.88251e-19 -3.69666 -14.7078 3.63576 -0.141713 27.9101 0.524266 -4.73099 -13.2738 -14.1843 2.03217e-16 0.0 3.88251e-19 -2.00217 -13.0913 -4.31369 0.104918 25.3204 -0.455256 3.74959 -14.1258 10.8279
0.799025 82.6898 -0.825467 2.4196 0.0091 2.058 -1.24117 6.25056 5.20052 -0.227874 -2.09399 1.44502 -4.6527 14.6771 -5.12789 3.82329 -24.8207 -9.15874 -0.0 0.0 0.0 -0.0 0.0 0.0 1.20264e-13 -2.47813e-14 2.70347e-14 79.6036 56.1354 -8.24101 -28.1789 -31.8146 70.1557 -1.62041 -33.6153 -5.36092 4.71256e-10 -3.24082e-09 9.22072e-10 7.89015e-10 -5.56992e-09 1.60278e-09 4.71256e-10 -3.24081e-09 9.2207e-10 7.73091 5.47488 0.417314 4.71252e-10 -3.24082e-09 9.22075e-10 2.90554 0.965183 0.102902 4.7126e-10 -3.24081e-09 9.22079e-10 10.2786 0.731801 0.0259123 4.71252e-10 -3.24081e-09 9.2209e-10 2.22167 -0.733487 -0.20892 1.20103e-13 -2.47792e-14 2.68992e-14 -76.6119 67.0433 5.25498 27.8701 -29.8866 -67.0677 0.0926998 -8.65219 1.22541 -1.70499e-10 -3.52863e-09 -6.91582e-10 -2.87015e-10 -6.11037e-09 -1.20116e-09 -1.70501e-10 -3.52863e-09 -6.91582e-10 -7.73091 5.47488 -0.417314 -1.70499e-10 -3.52864e-09 -6.91582e-10 -2.90554 0.965183 -0.102902 -1.70502e-10 -3.52863e-09 -6.9158e-10 -10.2786 0.731801 -0.0259123 -1.7049e-10 -3.52863e-09 -6.9158e-10 -2.22167 -0.733487 0.20892 -2.03217e-16 0.0 -3.88251e-19 -3.67997 -14.7012 3.62894 -0.142069 27.9438 0.524866 -4.7236 -13.2914 -14.1446 2.03217e-16 0.0 3.88251e-19 -1.98092 -13.0983 -4.2823 0.105148 25.3566 -0.455972 3.75278 -14.1339 10.834
0.784002 82.6822 -0.832458 2.3654 0.0248 2.0477 -1.22779 6.24418 5.19297 -0.211662 -2.08337 1.44344 -4.67135 14.6878 -5.12636 3.82486 -24.8117 -9.15447 -0.0 0.0 0.0 -0.0 0.0 0.0 7.18504e-14 5.27275e-14 3.97694e-14 79.1991 55.9465 -7.8674 -28.1747 -31.7839 70.1073 -1.621 -33.6205 -5.36198 8.37831e-10 -5.09836e-09 1.33867e-09 1.40949e-09 -8.77396e-09 2.33171e-09 8.3783e-10 -5.09836e-09 1.33867e-09 7.73091 5.47488 0.417314 8.37827e-10 -5.09835e-09 1.33868e-09 2.90554 0.965183 0.102902 8.37833e-10 -5.09835e-09 1.33868e-09 10.2786 0.731801 0.0259123 8.37826e-10 -5.09835e-09 1.33869e-09 2.22167 -0.733487 -0.20892 7.17514e-14 5.2727e-14 3.97166e-14 -76.4521 67.052 5.07598 27.8589 -29.8287 -66.9752 0.0913949 -8.59157 1.21669 2.84969e-11 -6.02893e-09 -1.57228e-09 6.26711e-11 -1.04186e-08 -2.7214e-09 2.84952e-11 -6.02894e-09 -1.57228e-09 -7.73091 5.47488 -0.417314 2.84977e-11 -6.02895e-09 -1.57229e-09 -2.90554 0.965183 -0.102902 2.84926e-11 -6.02894e-09 -1.57228e-09 -10.2786 0.731801 -0.0259123 2.85061e-11 -6.02893e-09 -1.57228e-09 -2.22167 -0.733487 0.20892 -2.03217e-16 0.0 -3.88251e-19 -3.67157 -14.7036 3.63268 -0.142313 27.9708 0.525595 -4.72244 -13.3308 -14.1075 2.03217e-16 0.0 3.88251e-19 -1.96881 -13.1166 -4.23598 0.1053 25.4011 -0.456894 3.76082 -14.1259 10.8615
0.774898 82.6719 -0.849459 2.3383 0.0401 2.0881 -1.21815 6.23551 5.18673 -0.19827 -2.07215 1.44219 -4.67879 14.698 -5.1249 3.82332 -24.8071 -9.15128 -0.0 0.0 0.0 -0.0 0.0 0.0 1.74068e-14 1.30311e-13 5.17151e-14 78.8063 55.7398 -7.49693 -28.1703 -31.7516 70.0563 -1.62174 -33.6271 -5.36332 1.16595e-09 -6.71145e-09 1.69411e-09 1.96511e-09 -1.15571e-08 2.95418e-09 1.16594e-09 -6.71145e-09 1.6941e-09 7.73091 5.47488 0.417314 1.16594e-09 -6.71145e-09 1.69411e-09 2.90554 0.965183 0.102902 1.16594e-09 -6.71145e-09 1.69412e-09 10.2786 0.731801 0.0259123 1.16594e-09 -6.71144e-09 1.69413e-09 2.22167 -0.733487 -0.20892 1.73661e-14 1.30308e-13 5.17341e-14 -76.2582 67.0514 4.8687 27.8474 -29.7692 -66.8806 0.0903674 -8.54333 1.20976 2.46599e-10 -8.37105e-09 -2.42102e-09 4.45068e-10 -1.44528e-08 -4.18611e-09 2.46597e-10 -8.37106e-09 -2.42102e-09 -7.73091 5.47488 -0.417314 2.466e-10 -8.37107e-09 -2.42103e-09 -2.90554 0.965183 -0.102902 2.46594e-10 -8.37105e-09 -2.42102e-09 -10.2786 0.731801 -0.0259123 2.46608e-10 -8.37105e-09 -2.42103e-09 -2.22167 -0.733487 0.20892 -2.03217e-16 0.0 -3.88251e-19 -3.66339 -14.7103 3.6414 -0.142434 27.9893 0.526298 -4.72756 -13.3739 -14.0884 2.03217e-16 0.0 3.88251e-19 -1.95894 -13.1414 -4.1922 0.105491 25.4498 -0.457872 3.76804 -14.1093 10.8893
0.773782 82.6675 -0.853642 2.3652 0.0055 2.0713 -1.20139 6.23686 5.17264 -0.191031 -2.06516 1.43872 -4.67755 14.6914 -5.12633 3.82711 -24.7829 -9.15268 -0.0 0.0 0.0 -0.0 0.0 0.0 -1.84801e-14 1.66186e-13 5.64052e-14 78.4275 55.5263 -7.13532 -28.1661 -31.7206 70.0069 -1.62257 -33.6345 -5.36482 1.24902e-09 -7.05828e-09 1.75839e-09 2.10613e-09 -1.21565e-08 3.06756e-09 1.24902e-09 -7.05828e-09 1.75838e-09 7.73091 5.47488 0.417314 1.24902e-09 -7.05827e-09 1.75839e-09 2.90554 0.965183 0.102902 1.24902e-09 -7.05827e-09 1.7584e-09 10.2786 0.731801 0.0259123 1.24902e-09 -7.05827e-09 1.75841e-09 2.22167 -0.733487 -0.20892 -1.84951e-14 1.66181e-13 5.64548e-14 -76.03 67.0486 4.63949 27.8359 -29.7104 -66.7868 0.090196 -8.53548 1.20863 3.81221e-10 -9.16569e-09 -2.75491e-09 6.79666e-10 -1.58189e-08 -4.76164e-09 3.81219e-10 -9.16569e-09 -2.75491e-09 -7.73091 5.47488 -0.417314 3.81222e-10 -9.16571e-09 -2.75492e-09 -2.90554 0.965183 -0.102902 3.81215e-10 -9.16569e-09 -2.75491e-09 -10.2786 0.731801 -0.0259123 3.81229e-10 -9.16569e-09 -2.75492e-09 -2.22167 -0.733487 0.20892 -2.03217e-16 0.0 -3.88251e-19 -3.64734 -14.7168 3.64953 -0.142422 27.9974 0.526823 -4.73906 -13.4025 -14.1028 2.03217e-16 0.0 3.88251e-19 -1.94442 -13.168 -4.16841 0.105839 25.4988 -0.458753 3.76881 -14.0918 10.8963
0.770793 82.6634 -0.861906 2.3636 0.0323 2.0646 -1.17326 6.25476 5.14721 -0.194124 -2.06304 1.43204 -4.66436 14.6569 -5.13326 3.84453 -24.7298 -9.16191 -0.0 0.0 0.0 -0.0 0.0 0.0 -2.79052e-14 1.37474e-13 5.12069e-14 78.0663 55.3027 -6.78232 -28.1627 -31.6942 69.9641 -1.62459 -33.6523 -5.36846 9.35446e-10 -5.38082e-09 1.36044e-09 1.57567e-09 -9.26423e-09 2.37264e-09 9.35444e-10 -5.38081e-09 1.36044e-09 7.73091 5.47488 0.417314 9.35442e-10 -5.38081e-09 1.36045e-09 2.90554 0.965183 0.102902 9.35445e-10 -5.38081e-09 1.36045e-09 10.2786 0.731801 0.0259123 9.35442e-10 -5.38081e-09 1.36047e-09 2.22167 -0.733487 -0.20892 -2.79473e-14 1.3747e-13 5.12224e-14 -75.7486 67.0618 4.37415 27.8249 -29.6543 -66.6976 0.0915165 -8.59827 1.21765 4.10967e-10 -7.60702e-09 -2.31174e-09 7.27723e-10 -1.31273e-08 -3.99506e-09 4.10965e-10 -7.60703e-09 -2.31173e-09 -7.73091 5.47488 -0.417314 4.10968e-10 -7.60704e-09 -2.31174e-09 -2.90554 0.965183 -0.102902 4.10963e-10 -7.60703e-09 -2.31174e-09 -10.2786 0.731801 -0.0259123 4.10975e-10 -7.60702e-09 -2.31175e-09 -2.22167 -0.733487 0.20892 -2.03217e-16 0.0 -3.88251e-19 -3.61999 -14.7239 3.65701 -0.142127 27.9843 0.527053 -4.76315 -13.4147 -14.1738 2.03217e-16 0.0 3.88251e-19 -1.92336 -13.1988 -4.17503 0.106497 25.5501 -0.459519 3.75861 -14.0713 10.8682
0.770577 82.661 -0.871049 2.3646 0.0897 2.0485 -1.13997 6.28157 5.11568 -0.204675 -2.06343 1.42363 -4.63922 14.6055 -5.14358 3.86908 -24.6616 -9.17633 -0.0 0.0 0.0 -0.0 0.0 0.0 -2.44311e-14 7.03705e-14 3.98719e-14 77.721 55.0652 -6.43591 -28.1596 -31.6698 69.9242 -1.62745 -33.6776 -5.37361 3.67565e-10 -2.38588e-09 6.59528e-10 6.148e-10 -4.09979e-09 1.1481e-09 3.67565e-10 -2.38587e-09 6.59519e-10 7.73091 5.47488 0.417314 3.67562e-10 -2.38587e-09 6.59537e-10 2.90554 0.965183 0.102902 3.67565e-10 -2.38587e-09 6.59536e-10 10.2786 0.731801 0.0259123 3.67562e-10 -2.38587e-09 6.59547e-10 2.22167 -0.733487 -0.20892 -2.45336e-14 7.03683e-14 3.98097e-14 -75.4202 67.0817 4.07427 27.814 -29.5993 -66.6101 0.093902 -8.70916 1.2336 3.88564e-10 -4.58112e-09 -1.39352e-09 6.82379e-10 -7.90519e-09 -2.40785e-09 3.88562e-10 -4.58113e-09 -1.39351e-09 -7.73091 5.47488 -0.417314 3.88564e-10 -4.58114e-09 -1.39352e-09 -2.90554 0.965183 -0.102902 3.88561e-10 -4.58113e-09 -1.39352e-09 -10.2786 0.731801 -0.0259123 3.88572e-10 -4.58112e-09 -1.39353e-09 -2.22167 -0.733487 0.20892 -2.03217e-16 0.0 -3.88251e-19 -3.58608 -14.7335 3.66633 -0.141604 27.9544 0.527094 -4.79776 -13.419 -14.2868 2.03217e-16 0.0 3.88251e-19 -1.89951 -13.2352 -4.20083 0.107362 25.6048 -0.460242 3.74148 -14.0451 10.8191
